<svg role='presentation' width="172" height="172" viewBox="0 0 172 172" fill="none" xmlns="http://www.w3.org/2000/svg">
<circle opacity="0.3" cx="86" cy="86" r="86" transform="rotate(-90 86 86)" fill="#D7B344"/>
<path d="M111.496 74.4533V66.3618C111.496 62.2845 110.184 58.2702 105.598 57.1464C102.272 56.3372 97.5069 55.2763 97.5069 55.2763C92.2204 53.9367 92.4721 47.9849 92.4721 45.6204H80.0426C80.0426 47.9849 80.2808 53.9367 74.9854 55.2943C74.9854 55.2943 70.2293 56.3552 66.8938 57.1643C62.3175 58.2747 61.0049 62.3025 61.0049 66.3797V74.4713C61.0049 78.2474 64.2775 82.4595 64.2775 85.368V121.883C64.2775 124.765 61.0049 128.986 61.0049 132.762V140.854C61.0049 142.629 61.904 144.158 64.2775 144.158H108.206C110.566 144.158 111.478 142.629 111.478 140.854V132.762C111.478 128.986 108.206 124.778 108.206 121.865V85.35C108.206 82.4415 111.496 78.2294 111.496 74.4533Z" fill="#A1151A"/>
<path d="M92.4632 25.4185H80.0426V45.6204H92.4632V25.4185Z" fill="#D7B344"/>
<path d="M99.849 72.4395H72.6523V125.444H99.849V72.4395Z" fill="#D7B344"/>
<path d="M99.849 92.8977H72.6523V101.601H99.849V92.8977Z" fill="white"/>
<path d="M86.2506 87.6291C89.1157 87.6291 91.4382 85.3065 91.4382 82.4415C91.4382 79.5765 89.1157 77.2539 86.2506 77.2539C83.3856 77.2539 81.063 79.5765 81.063 82.4415C81.063 85.3065 83.3856 87.6291 86.2506 87.6291Z" fill="#A1151A"/>
<path d="M94.2523 101.601H78.2489V120.09H94.2523V101.601Z" fill="#A1151A"/>
</svg>
