<svg role='presentation' width="172" height="172" viewBox="0 0 172 172" fill="none" xmlns="http://www.w3.org/2000/svg">
<circle opacity="0.3" cx="86" cy="86" r="86" transform="rotate(-90 86 86)" fill="#D7B344"/>
<path d="M60.3038 54.8072C59.2653 54.8072 58.3199 55.296 57.7086 55.9751C57.0974 56.6542 56.7581 57.4851 56.5962 58.3409C56.5962 58.3413 56.5962 58.3417 56.5962 58.3421L55.5571 63.836C54.271 64.2627 53.0209 64.7828 51.8114 65.3937L47.1848 62.239C46.4655 61.7487 45.6381 61.4002 44.7255 61.3521C43.8121 61.3041 42.7988 61.6291 42.0654 62.3626L36.6024 67.8256C35.8681 68.5598 35.5441 69.5736 35.5916 70.486C35.6387 71.3985 35.9867 72.228 36.4772 72.9479L39.6182 77.5548C39.0089 78.7704 38.4915 80.0267 38.068 81.3189L32.5794 82.3577C31.7235 82.5196 30.8911 82.8589 30.212 83.4701C29.5329 84.0814 29.0443 85.0285 29.0443 86.067V93.7929C29.0443 94.8314 29.5329 95.7768 30.212 96.3881C30.8911 96.9994 31.7235 97.3399 32.5794 97.5018L38.0767 98.5432C38.5034 99.8281 39.0226 101.077 39.6331 102.285L36.4772 106.912C35.9863 107.632 35.639 108.461 35.5916 109.373C35.5445 110.286 35.8678 111.3 36.6024 112.034L42.0654 117.497C42.7997 118.231 43.8131 118.554 44.7255 118.506C45.638 118.458 46.4662 118.11 47.186 117.62L51.7929 114.479C53.0089 115.089 54.2659 115.605 55.5584 116.029L56.5972 121.517C56.7591 122.373 57.0986 123.206 57.7099 123.885C58.3212 124.564 59.2666 125.052 60.3051 125.052H68.0323C69.0709 125.052 70.0162 124.564 70.6275 123.885C71.2385 123.206 71.5783 122.374 71.7403 121.519V121.517L72.7804 116.023C74.0666 115.597 75.3164 115.076 76.526 114.466L81.1514 117.619C81.8711 118.11 82.6994 118.458 83.6119 118.506C84.5243 118.553 85.5389 118.231 86.2733 117.496L91.7363 112.033C92.4706 111.299 92.7938 110.284 92.7459 109.372C92.6982 108.459 92.3498 107.631 91.859 106.911L88.7179 102.305C89.3274 101.089 89.8445 99.8325 90.2682 98.5401L95.7568 97.5013C96.6125 97.3393 97.4451 96.9988 98.1242 96.3875C98.8032 95.7763 99.2918 94.8309 99.2918 93.7923V86.0661C99.2918 85.0276 98.8032 84.0809 98.1242 83.4696C97.4454 82.8587 96.6135 82.5192 95.7581 82.3572L90.2633 81.3171C89.8368 80.0317 89.3161 78.7826 88.7056 77.5737L91.8603 72.9474C92.3508 72.2278 92.6991 71.3994 92.7472 70.4868C92.7955 69.5743 92.4712 68.5595 91.7363 67.8251L86.2746 62.3621C85.5401 61.6281 84.5259 61.3036 83.6129 61.3516C82.7006 61.3998 81.8731 61.7484 81.154 62.2385L76.5471 65.3795C75.3311 64.7704 74.0741 64.2536 72.7817 63.8303L71.7412 58.3403C71.5794 57.4846 71.2401 56.6537 70.6288 55.9746C70.0176 55.2955 69.0722 54.8066 68.0336 54.8066L60.3038 54.8072ZM64.1676 76.6237C71.5318 76.6237 77.4719 82.5649 77.4716 89.9291C77.4716 97.293 71.5315 103.234 64.1676 103.234C56.8034 103.234 50.8621 97.2933 50.8619 89.9291C50.8619 82.5646 56.8031 76.6235 64.1676 76.6237Z" fill="#A1151A"/>
<path d="M115.239 44.7592C114.691 44.7592 114.192 45.017 113.87 45.3752C113.547 45.7334 113.369 46.1717 113.283 46.6231C113.283 46.6233 113.283 46.6235 113.283 46.6237L112.735 49.5214C112.057 49.7465 111.397 50.0208 110.759 50.3431L108.319 48.6791C107.94 48.4205 107.503 48.2367 107.022 48.2113C106.54 48.186 106.006 48.3574 105.619 48.7443L102.737 51.6258C102.35 52.013 102.179 52.5478 102.204 53.029C102.229 53.5103 102.413 53.9478 102.671 54.3275L104.328 56.7574C104.007 57.3987 103.734 58.0613 103.51 58.7428L100.615 59.2907C100.164 59.3762 99.7249 59.5551 99.3667 59.8775C99.0085 60.1999 98.7509 60.6995 98.7509 61.2472V65.3223C98.7509 65.8701 99.0085 66.3687 99.3667 66.6911C99.7249 67.0135 100.164 67.1931 100.615 67.2786L103.515 67.8278C103.74 68.5055 104.014 69.1642 104.336 69.8016L102.671 72.2419C102.412 72.6217 102.229 73.0589 102.204 73.5403C102.179 74.0216 102.35 74.5563 102.737 74.9435L105.619 77.825C106.006 78.2123 106.541 78.3825 107.022 78.3573C107.503 78.3321 107.94 78.1485 108.32 77.8897L110.75 76.2334C111.391 76.5547 112.054 76.8273 112.736 77.0506L113.284 79.9456C113.369 80.397 113.548 80.8361 113.871 81.1943C114.193 81.5524 114.692 81.8101 115.239 81.8101H119.315C119.863 81.8101 120.362 81.5524 120.684 81.1943C121.006 80.8362 121.185 80.3975 121.271 79.9463V79.9453L121.819 77.0477C122.498 76.8227 123.157 76.5483 123.795 76.2261L126.235 77.8894C126.614 78.1482 127.051 78.3318 127.533 78.357C128.014 78.3822 128.549 78.212 128.936 77.8247L131.818 74.9432C132.205 74.5558 132.376 74.0206 132.35 73.5393C132.325 73.058 132.141 72.6211 131.883 72.2415L130.226 69.8117C130.547 69.1704 130.82 68.5079 131.043 67.8262L133.938 67.2782C134.39 67.1928 134.829 67.0132 135.187 66.6908C135.545 66.3684 135.803 65.8697 135.803 65.322V61.2468C135.803 60.699 135.545 60.1997 135.187 59.8772C134.829 59.555 134.39 59.3759 133.939 59.2905L131.041 58.7419C130.816 58.0639 130.541 57.4051 130.219 56.7674L131.883 54.3273C132.142 53.9477 132.326 53.5108 132.351 53.0295C132.377 52.5481 132.205 52.0129 131.818 51.6255L128.937 48.7441C128.55 48.3569 128.015 48.1858 127.533 48.211C127.052 48.2365 126.615 48.4203 126.236 48.6789L123.806 50.3356C123.165 50.0143 122.502 49.7417 121.82 49.5184L121.271 46.6228C121.186 46.1714 121.007 45.7331 120.685 45.3749C120.362 45.0168 119.864 44.7589 119.316 44.7589L115.239 44.7592ZM117.277 56.2664C121.161 56.2664 124.294 59.4 124.294 63.2843C124.294 67.1684 121.161 70.3021 117.277 70.3022C113.392 70.3022 110.259 67.1686 110.259 63.2843C110.259 59.3999 113.392 56.2663 117.277 56.2664Z" fill="#D7B344"/>
<path d="M115.57 93.5261C115.185 93.5261 114.835 93.707 114.609 93.9584C114.383 94.2097 114.257 94.5172 114.197 94.834C114.197 94.8341 114.197 94.8343 114.197 94.8344L113.813 96.8678C113.337 97.0257 112.874 97.2182 112.427 97.4444L110.714 96.2767C110.448 96.0953 110.142 95.9663 109.804 95.9485C109.466 95.9307 109.091 96.051 108.819 96.3225L106.797 98.3445C106.526 98.6162 106.406 98.9914 106.423 99.3291C106.441 99.6668 106.57 99.9739 106.751 100.24L107.914 101.945C107.688 102.395 107.497 102.86 107.34 103.339L105.308 103.723C104.992 103.783 104.684 103.909 104.432 104.135C104.181 104.361 104 104.712 104 105.096V107.955C104 108.34 104.181 108.69 104.432 108.916C104.684 109.142 104.992 109.268 105.308 109.328L107.343 109.714C107.501 110.189 107.693 110.651 107.919 111.099L106.751 112.811C106.569 113.078 106.441 113.384 106.423 113.722C106.406 114.06 106.525 114.435 106.797 114.707L108.819 116.729C109.091 117.001 109.466 117.12 109.804 117.102C110.142 117.085 110.448 116.956 110.715 116.774L112.42 115.612C112.87 115.837 113.335 116.029 113.813 116.185L114.198 118.217C114.258 118.534 114.383 118.842 114.61 119.093C114.836 119.344 115.186 119.525 115.57 119.525H118.43C118.815 119.525 119.165 119.344 119.391 119.093C119.617 118.842 119.743 118.534 119.803 118.217V118.217L120.188 116.183C120.664 116.025 121.126 115.833 121.574 115.607L123.286 116.774C123.552 116.956 123.859 117.084 124.197 117.102C124.534 117.12 124.91 117 125.182 116.729L127.204 114.707C127.475 114.435 127.595 114.059 127.577 113.721C127.56 113.384 127.431 113.077 127.249 112.811L126.086 111.106C126.312 110.656 126.503 110.191 126.66 109.713L128.692 109.328C129.008 109.268 129.316 109.142 129.568 108.916C129.819 108.69 130 108.34 130 107.955V105.096C130 104.711 129.819 104.361 129.568 104.135C129.317 103.908 129.009 103.783 128.692 103.723L126.658 103.338C126.501 102.862 126.308 102.4 126.082 101.952L127.249 100.24C127.431 99.9738 127.56 99.6672 127.578 99.3294C127.596 98.9917 127.476 98.6161 127.204 98.3443L125.182 96.3223C124.91 96.0506 124.535 95.9305 124.197 95.9483C123.859 95.9661 123.553 96.0952 123.287 96.2766L121.582 97.4391C121.132 97.2137 120.666 97.0224 120.188 96.8657L119.803 94.8338C119.743 94.517 119.617 94.2095 119.391 93.9582C119.165 93.7068 118.815 93.5259 118.431 93.5259L115.57 93.5261ZM117 101.601C119.725 101.601 121.924 103.8 121.924 106.525C121.924 109.251 119.725 111.45 117 111.45C114.274 111.45 112.075 109.251 112.075 106.525C112.075 103.8 114.274 101.601 117 101.601Z" fill="#A1151A"/>
</svg>
