<svg width="21" height="21" viewBox="0 0 21 21" fill="none" xmlns="http://www.w3.org/2000/svg">
<path d="M10.108 0.79364C7.36304 0.79364 7.01856 0.805633 5.94046 0.854658C4.86447 0.903893 4.13002 1.07411 3.48738 1.32386C2.82262 1.58182 2.25873 1.92688 1.69694 2.48846C1.13474 3.04982 0.789408 3.61328 0.530413 4.27732C0.279841 4.91969 0.109283 5.6538 0.0608532 6.72855C0.0126338 7.80583 0 8.15026 0 10.8931C0 13.636 0.012213 13.9791 0.0610641 15.0564C0.110547 16.1316 0.280894 16.8655 0.530624 17.5076C0.788987 18.1719 1.13431 18.7353 1.69631 19.2967C2.25789 19.8585 2.82178 20.2044 3.48612 20.4623C4.12918 20.7121 4.86384 20.8823 5.93962 20.9316C7.01771 20.9806 7.36199 20.9926 10.1067 20.9926C12.8518 20.9926 13.1953 20.9806 14.2734 20.9316C15.3494 20.8823 16.0846 20.7121 16.7277 20.4623C17.3923 20.2044 17.9553 19.8585 18.5169 19.2967C19.0791 18.7353 19.4244 18.1719 19.6834 17.5078C19.9319 16.8655 20.1024 16.1314 20.153 15.0566C20.2014 13.9793 20.214 13.636 20.214 10.8931C20.214 8.15026 20.2014 7.80604 20.153 6.72876C20.1024 5.65359 19.9319 4.91969 19.6834 4.27753C19.4244 3.61328 19.0791 3.04982 18.5169 2.48846C17.9547 1.92667 17.3925 1.58161 16.7271 1.32386C16.0828 1.07411 15.3479 0.903893 14.2719 0.854658C13.1938 0.805633 12.8506 0.79364 10.1048 0.79364H10.108ZM9.20127 2.61365C9.47038 2.61323 9.77064 2.61365 10.108 2.61365C12.8066 2.61365 13.1264 2.62333 14.1921 2.67172C15.1775 2.71675 15.7124 2.88128 16.0686 3.01952C16.5403 3.20257 16.8766 3.42139 17.2301 3.77488C17.5839 4.12836 17.8029 4.46501 17.9865 4.93631C18.1248 5.2919 18.2897 5.82633 18.3345 6.81103C18.383 7.87568 18.3935 8.1955 18.3935 10.8908C18.3935 13.5861 18.383 13.9059 18.3345 14.9706C18.2895 15.9553 18.1248 16.4897 17.9865 16.8453C17.8033 17.3166 17.5839 17.6522 17.2301 18.0054C16.8764 18.3589 16.5405 18.5777 16.0686 18.7608C15.7128 18.8997 15.1775 19.0638 14.1921 19.1088C13.1266 19.1572 12.8066 19.1677 10.108 19.1677C7.40915 19.1677 7.08931 19.1572 6.02385 19.1088C5.0384 19.0634 4.50357 18.8988 4.14708 18.7606C3.67541 18.5775 3.33851 18.3587 2.98476 18.0052C2.63101 17.6518 2.41202 17.3159 2.22841 16.8444C2.09007 16.4888 1.9252 15.9544 1.88035 14.9697C1.83192 13.9051 1.82223 13.5852 1.82223 10.8883C1.82223 8.19129 1.83192 7.87316 1.88035 6.8085C1.92541 5.82381 2.09007 5.28937 2.22841 4.93337C2.4116 4.46206 2.63101 4.12541 2.98476 3.77193C3.33851 3.41845 3.67541 3.19963 4.14708 3.01615C4.50336 2.87729 5.0384 2.71317 6.02385 2.66793C6.95623 2.62585 7.31756 2.61323 9.20127 2.61112V2.61365ZM15.5031 4.29058C14.8335 4.29058 14.2902 4.83279 14.2902 5.50209C14.2902 6.17118 14.8335 6.71403 15.5031 6.71403C16.1727 6.71403 16.7159 6.17118 16.7159 5.50209C16.7159 4.833 16.1727 4.29016 15.5031 4.29016V4.29058ZM10.108 5.70661C7.24154 5.70661 4.91754 8.02885 4.91754 10.8931C4.91754 13.7574 7.24154 16.0785 10.108 16.0785C12.9744 16.0785 15.2976 13.7574 15.2976 10.8931C15.2976 8.02885 12.9742 5.70661 10.1078 5.70661H10.108ZM10.108 7.52662C11.9685 7.52662 13.477 9.03375 13.477 10.8931C13.477 12.7522 11.9685 14.2596 10.108 14.2596C8.2472 14.2596 6.73892 12.7522 6.73892 10.8931C6.73892 9.03375 8.2472 7.52662 10.108 7.52662Z" fill="#A1151A"/>
</svg>
