<svg width="20" height="16" viewBox="0 0 20 16" fill="none" xmlns="http://www.w3.org/2000/svg">
<path fill-rule="evenodd" clip-rule="evenodd" d="M3.19094 15.2155L3.20965 15.1968C2.2089 14.8977 1.26426 14.4398 0.385101 13.8884C0.684391 13.9351 0.993033 13.9444 1.32038 13.9444C2.24631 13.9444 3.12547 13.7949 3.94852 13.4958C4.75286 13.2248 5.51979 12.7949 6.19319 12.2715C5.34209 12.2715 4.5471 11.9631 3.8924 11.4865C3.26576 10.9818 2.77942 10.337 2.52689 9.53325C2.75136 9.57997 3.00389 9.60801 3.25641 9.60801C3.63052 9.60801 3.94852 9.55194 4.30392 9.47717C3.40606 9.28091 2.62042 8.81362 2.04055 8.14073C1.48873 7.4398 1.14268 6.58934 1.14268 5.63607V5.58C1.66643 5.87906 2.26501 6.03794 2.91971 6.06598C1.86284 5.36505 1.18009 4.16879 1.18009 2.79497C1.18009 2.09404 1.3765 1.4118 1.70385 0.832361C2.68589 2.00992 3.88305 2.98188 5.25791 3.71085C6.63277 4.41178 8.16663 4.85103 9.79402 4.9258C9.74725 4.65477 9.70049 4.3557 9.70049 4.0286C9.70049 2.95384 10.1401 1.9632 10.8415 1.26227C11.571 0.533298 12.525 0.103394 13.6287 0.103394C14.7604 0.103394 15.7892 0.580026 16.4906 1.35572C17.3885 1.17815 18.2115 0.851053 18.9878 0.402457C18.6885 1.29965 18.0806 2.066 17.2576 2.57067C18.0619 2.46787 18.8195 2.25291 19.5209 1.95385C18.9972 2.72955 18.3331 3.41179 17.5568 3.99122C17.5568 4.14075 17.5755 4.31832 17.5755 4.49589C17.5755 5.79495 17.3324 7.10335 16.846 8.43045C16.3597 9.75754 15.6395 10.9538 14.6949 12.0286C13.7503 13.1033 12.5812 13.9818 11.1876 14.6641C9.79402 15.3463 8.19469 15.6827 6.3896 15.6827C5.28597 15.6827 4.21975 15.5145 3.19094 15.2155Z" fill="#A1151A"/>
</svg>
